<svg id="Expanded" xmlns="http://www.w3.org/2000/svg" viewBox="0 0 96 96"><path d="M63.65,69.83H32.35a3.21,3.21,0,0,1-3.21-3.21V42.43a3.21,3.21,0,0,1,3.21-3.21h31.3a3.21,3.21,0,0,1,3.21,3.21V66.62A3.21,3.21,0,0,1,63.65,69.83ZM32.35,41.22a1.21,1.21,0,0,0-1.21,1.21V66.62a1.21,1.21,0,0,0,1.21,1.21h31.3a1.21,1.21,0,0,0,1.21-1.21V42.43a1.21,1.21,0,0,0-1.21-1.21Z"/><path d="M59.08,41.22H36.92a1,1,0,0,1-1-1V33.73a12.08,12.08,0,1,1,24.16,0v6.49A1,1,0,0,1,59.08,41.22Zm-21.16-2H58.08V33.73a10.08,10.08,0,1,0-20.16,0Z"/><path d="M48,94a1,1,0,0,1-.3,0C31.27,88.81,21.75,76.67,17.54,69.89a24.9,24.9,0,0,1-3.7-13.17V18.44a1,1,0,0,1,1-1C36.74,17,47.08,2.57,47.18,2.43A1,1,0,0,1,48,2h0a1,1,0,0,1,.82.43c.1.14,10.49,14.6,32.35,15a1,1,0,0,1,1,1V56.72a24.9,24.9,0,0,1-3.7,13.17C74.25,76.67,64.73,88.81,48.3,94A1,1,0,0,1,48,94ZM15.84,19.42v37.3a22.9,22.9,0,0,0,3.4,12.11C24.17,76.77,33.15,87.2,48,92,62.85,87.2,71.83,76.77,76.76,68.83a22.9,22.9,0,0,0,3.4-12.11V19.42C61.14,18.71,50.86,8.09,48,4.63,45.14,8.09,34.86,18.71,15.84,19.42Z"/><path d="M50.18,61.7H45.82a1,1,0,0,1-.75-.33,1,1,0,0,1-.25-.77l.57-5.49a4.33,4.33,0,1,1,5.22,0l.57,5.49a1,1,0,0,1-.25.77A1,1,0,0,1,50.18,61.7Zm-3.25-2h2.14l-.51-5a1,1,0,0,1,.52-1,2.33,2.33,0,1,0-2.16,0,1,1,0,0,1,.52,1Z"/></svg>