<svg width="440" height="511" version="1.1" xmlns="http://www.w3.org/2000/svg" desc="Created with imagetracer.js version 1.2.6" ><path fill="rgb(54,54,54)" stroke="rgb(54,54,54)" stroke-width="1" opacity="1" d="M 215.5 4 L 222 4.5 L 215.5 5 L 215.5 4 Z " /><path fill="rgb(54,54,54)" stroke="rgb(54,54,54)" stroke-width="1" opacity="1" d="M 190.5 117 L 209 117.5 L 190.5 118 L 190.5 117 Z " /><path fill="rgb(54,54,54)" stroke="rgb(54,54,54)" stroke-width="1" opacity="1" d="M 229.5 117 L 248 117.5 L 229.5 118 L 229.5 117 Z " /><path fill="rgb(54,54,54)" stroke="rgb(54,54,54)" stroke-width="1" opacity="1" d="M 180.5 118 L 187 118.5 L 180.5 119 L 180.5 118 Z " /><path fill="rgb(54,54,54)" stroke="rgb(54,54,54)" stroke-width="1" opacity="1" d="M 249.5 118 L 258 118.5 L 249.5 119 L 249.5 118 Z " /><path fill="rgb(54,54,54)" stroke="rgb(54,54,54)" stroke-width="1" opacity="1" d="M 171.5 119 L 178 119.5 L 171.5 120 L 171.5 119 Z " /><path fill="rgb(54,54,54)" stroke="rgb(54,54,54)" stroke-width="1" opacity="1" d="M 259.5 119 L 267 119.5 L 259.5 120 L 259.5 119 Z " /><path fill="rgb(54,54,54)" stroke="rgb(54,54,54)" stroke-width="1" opacity="1" d="M 164.5 120 L 169 120.5 L 164.5 121 L 164.5 120 Z " /><path fill="rgb(54,54,54)" stroke="rgb(54,54,54)" stroke-width="1" opacity="1" d="M 269.5 120 L 274 120.5 L 269.5 121 L 269.5 120 Z " /><path fill="rgb(54,54,54)" stroke="rgb(54,54,54)" stroke-width="1" opacity="1" d="M 157.5 121 L 161 121.5 L 157.5 122 L 157.5 121 Z " /><path fill="rgb(54,54,54)" stroke="rgb(54,54,54)" stroke-width="1" opacity="1" d="M 277.5 121 L 280 121.5 L 277.5 122 L 277.5 121 Z " /><path fill="rgb(54,54,54)" stroke="rgb(54,54,54)" stroke-width="1" opacity="1" d="M 198.5 130 L 240 130.5 L 198.5 131 L 198.5 130 Z " /><path fill="rgb(54,54,54)" stroke="rgb(54,54,54)" stroke-width="1" opacity="1" d="M 185.5 131 L 193 131.5 L 185.5 132 L 185.5 131 Z " /><path fill="rgb(54,54,54)" stroke="rgb(54,54,54)" stroke-width="1" opacity="1" d="M 244.5 131 L 253 131.5 L 244.5 132 L 244.5 131 Z " /><path fill="rgb(54,54,54)" stroke="rgb(54,54,54)" stroke-width="1" opacity="1" d="M 176.5 132 L 181 132.5 L 176.5 133 L 176.5 132 Z " /><path fill="rgb(54,54,54)" stroke="rgb(54,54,54)" stroke-width="1" opacity="1" d="M 257.5 132 L 261 132.5 L 257.5 133 L 257.5 132 Z " /><path fill="rgb(54,54,54)" stroke="rgb(54,54,54)" stroke-width="1" opacity="1" d="M 169.5 133 L 174 133.5 L 169.5 134 L 169.5 133 Z " /><path fill="rgb(54,54,54)" stroke="rgb(54,54,54)" stroke-width="1" opacity="1" d="M 263.5 133 L 269 133.5 L 263.5 134 L 263.5 133 Z " /><path fill="rgb(54,54,54)" stroke="rgb(54,54,54)" stroke-width="1" opacity="1" d="M 161.5 137 L 162 165.5 L 161 165.5 L 160 140.5 L 161.5 137 Z " /><path fill="rgb(54,54,54)" stroke="rgb(54,54,54)" stroke-width="1" opacity="1" d="M 276.5 138 L 277 163.5 L 276 163.5 L 276.5 138 Z " /><path fill="rgb(54,54,54)" stroke="rgb(54,54,54)" stroke-width="1" opacity="1" d="M 148.5 141 L 149 169.5 L 148 169.5 L 148.5 141 Z " /><path fill="rgb(54,54,54)" stroke="rgb(54,54,54)" stroke-width="1" opacity="1" d="M 289.5 141 L 290 168.5 L 289 168.5 L 289.5 141 Z " /><path fill="rgb(54,54,54)" stroke="rgb(54,54,54)" stroke-width="1" opacity="1" d="M 64.5 191 L 65 196.5 L 64 196.5 L 64.5 191 Z " /><path fill="rgb(54,54,54)" stroke="rgb(54,54,54)" stroke-width="1" opacity="1" d="M 373.5 192 L 374 195.5 L 373 195.5 L 373.5 192 Z " /><path fill="rgb(54,54,54)" stroke="rgb(54,54,54)" stroke-width="1" opacity="1" d="M 212.5 216 L 226 216.5 L 218.5 218 Q 217.2 215.7 212.5 217 L 212.5 216 Z " /><path fill="rgb(54,54,54)" stroke="rgb(54,54,54)" stroke-width="1" opacity="1" d="M 207.5 229 L 231 229.5 L 207.5 230 L 207.5 229 Z " /><path fill="rgb(54,54,54)" stroke="rgb(54,54,54)" stroke-width="1" opacity="1" d="M 72.5 319 L 184 319.5 L 72.5 320 L 72.5 319 Z " /><path fill="rgb(54,54,54)" stroke="rgb(54,54,54)" stroke-width="1" opacity="1" d="M 212.5 319 L 226 319.5 L 212.5 320 L 212.5 319 Z " /><path fill="rgb(54,54,54)" stroke="rgb(54,54,54)" stroke-width="1" opacity="1" d="M 254.5 319 L 366 319.5 L 254.5 320 L 254.5 319 Z " /><path fill="rgb(54,54,54)" stroke="rgb(54,54,54)" stroke-width="1" opacity="1" d="M 77.5 332 L 360 332.5 L 77.5 333 L 77.5 332 Z " /><path fill="rgb(54,54,54)" stroke="rgb(54,54,54)" stroke-width="1" opacity="1" d="M 54.5 335 L 55 480.5 L 53.5 483 L 53 340.5 L 54.5 335 Z " /><path fill="rgb(54,54,54)" stroke="rgb(54,54,54)" stroke-width="1" opacity="1" d="M 383.5 336 L 384 480.5 L 383 480.5 L 383.5 336 Z " /><path fill="rgb(54,54,54)" stroke="rgb(54,54,54)" stroke-width="1" opacity="1" d="M 67.5 341 L 68 482.5 L 67 482.5 L 66 480.5 L 66 345.5 L 67.5 341 Z " /><path fill="rgb(54,54,54)" stroke="rgb(54,54,54)" stroke-width="1" opacity="1" d="M 370.5 343 L 371 481.5 L 370 481.5 L 370.5 343 Z " /><path fill="rgb(54,54,54)" stroke="rgb(54,54,54)" stroke-width="1" opacity="1" d="M 216.5 354 L 221 354.5 L 216.5 355 L 216.5 354 Z " /><path fill="rgb(54,54,54)" stroke="rgb(54,54,54)" stroke-width="1" opacity="1" d="M 212.5 376 L 213 398.5 L 212 398.5 L 212.5 376 Z " /><path fill="rgb(54,54,54)" stroke="rgb(54,54,54)" stroke-width="1" opacity="1" d="M 225.5 376 L 226 398.5 L 225 398.5 L 225.5 376 Z " /><path fill="rgb(54,54,54)" stroke="rgb(54,54,54)" stroke-width="1" opacity="1" d="M 170.5 382 L 171 400.5 L 170 400.5 L 170.5 382 Z " /><path fill="rgb(54,54,54)" stroke="rgb(54,54,54)" stroke-width="1" opacity="1" d="M 267.5 382 L 268 399.5 L 267 399.5 L 267.5 382 Z " /><path fill="rgb(54,54,54)" stroke="rgb(54,54,54)" stroke-width="1" opacity="1" d="M 188.5 402 L 209 402.5 L 188.5 403 L 188.5 402 Z " /><path fill="rgb(54,54,54)" stroke="rgb(54,54,54)" stroke-width="1" opacity="1" d="M 229.5 402 L 249 402.5 L 229.5 403 L 229.5 402 Z " /><path fill="rgb(54,54,54)" stroke="rgb(54,54,54)" stroke-width="1" opacity="1" d="M 1.5 414 L 2 416.5 L 0.5 420 L 0 416.5 L 1.5 414 Z " /><path fill="rgb(54,54,54)" stroke="rgb(54,54,54)" stroke-width="1" opacity="1" d="M 192.5 415 L 209 415.5 L 192.5 416 L 192.5 415 Z " /><path fill="rgb(54,54,54)" stroke="rgb(54,54,54)" stroke-width="1" opacity="1" d="M 229.5 415 L 246 415.5 L 229.5 416 L 229.5 415 Z " /><path fill="rgb(54,54,54)" stroke="rgb(54,54,54)" stroke-width="1" opacity="1" d="M 437.5 418 L 440 426.5 L 439 426.5 L 437.5 418 Z " /><path fill="rgb(54,54,54)" stroke="rgb(54,54,54)" stroke-width="1" opacity="1" d="M 212.5 419 L 213 440.5 L 212 440.5 L 212.5 419 Z " /><path fill="rgb(54,54,54)" stroke="rgb(54,54,54)" stroke-width="1" opacity="1" d="M 225.5 419 L 226 440.5 L 225 440.5 L 225.5 419 Z " /><path fill="rgb(54,54,54)" stroke="rgb(54,54,54)" stroke-width="1" opacity="1" d="M 215.5 462 L 223 462.5 L 218.5 464 L 215.5 463 L 215.5 462 Z " /><path fill="rgb(54,54,54)" stroke="rgb(54,54,54)" stroke-width="1" opacity="1" d="M 439.5 474 L 440 476.5 L 437.5 480 L 438 478.5 L 439.5 474 Z " /><path fill="rgb(54,54,54)" stroke="rgb(54,54,54)" stroke-width="1" opacity="1" d="M 0.5 479 L 3 483.5 L 0 481.5 L 0.5 479 Z " /><path fill="rgb(54,54,54)" stroke="rgb(54,54,54)" stroke-width="1" opacity="1" d="M 69.5 484 L 368 484.5 L 366.5 486 L 71.5 486 L 69.5 484 Z " /><path fill="rgb(54,54,54)" stroke="rgb(54,54,54)" stroke-width="1" opacity="1" d="M 45.5 485 L 50 485.5 L 45.5 486 L 45.5 485 Z " /><path fill="rgb(54,54,54)" stroke="rgb(54,54,54)" stroke-width="1" opacity="1" d="M 388.5 485 L 393 485.5 L 388.5 486 L 388.5 485 Z " /><path fill="rgb(54,54,54)" stroke="rgb(54,54,54)" stroke-width="1" opacity="1" d="M 52.5 498 L 386 498.5 L 52.5 499 L 52.5 498 Z " /><path fill="rgb(54,54,54)" stroke="rgb(54,54,54)" stroke-width="1" opacity="1" d="M 32.5 499 L 33 503.5 L 32 503.5 L 32.5 499 Z " /><path fill="rgb(54,54,54)" stroke="rgb(54,54,54)" stroke-width="1" opacity="1" d="M 405.5 500 L 406 503.5 L 405 503.5 L 405.5 500 Z " /><path fill="rgb(54,54,54)" stroke="rgb(54,54,54)" stroke-width="1" opacity="1" d="M 50.5 509 L 388 509.5 L 50.5 510 L 50.5 509 Z " /><path fill="rgb(0,0,0)" stroke="rgb(0,0,0)" stroke-width="1" opacity="1" d="M 211.5 5 L 226.5 5 L 241.5 9 Q 255.1 15.4 264 26.5 L 334 130.5 L 337 137 L 333.5 137 L 310.5 128 L 266.5 119 L 248.5 118 L 247.5 117 L 190.5 117 L 189.5 118 L 180.5 118 L 179.5 119 L 157.5 121 Q 152.1 124.1 143.5 124 L 127.5 128 L 100.5 138 L 100 136.5 L 167 37.5 L 170 31 Q 172.7 32.1 172 29.5 L 183.5 17 L 196.5 9 L 211.5 5 Z " /><path fill="rgb(0,0,0)" stroke="rgb(0,0,0)" stroke-width="1" opacity="1" d="M 193.5 131 L 243.5 131 L 244.5 132 L 256.5 132 L 263.5 134 L 270.5 134 L 276 137.5 L 276 166.5 L 274 176.5 Q 267.7 192.7 255.5 203 Q 246.5 211 233.5 215 L 228.5 216 L 209.5 216 Q 187 211 175 195.5 Q 167 186.5 163 173.5 Q 164.2 168.8 162 167.5 L 162 136 L 167.5 134 L 173.5 134 L 181.5 132 L 192.5 132 L 193.5 131 Z " /><path fill="rgb(0,0,0)" stroke="rgb(0,0,0)" stroke-width="1" opacity="1" d="M 145.5 138 L 148 140.5 L 148 169.5 L 152 185.5 Q 159.7 204.3 174.5 216 Q 185.7 224.8 201.5 229 Q 206.3 227.8 207.5 230 L 230.5 230 L 245.5 226 L 266 214 Q 264.9 211.3 267.5 212 L 278 200.5 L 285 187.5 L 290 168.5 L 290 140.5 L 292.5 138 L 319.5 146 L 341.5 156 Q 355.9 163.5 366 175.5 L 373 188.5 L 373 200 Q 370.3 198.9 371 201.5 L 327.5 238 L 322 241 Q 323.1 243.7 320.5 243 L 305 255 Q 306.1 257.7 303.5 257 L 250.5 301 L 245 304 Q 246.1 306.7 243.5 306 L 227.5 319 L 210.5 319 L 182.5 296 L 177 293 Q 178.1 290.3 175.5 291 L 65 199.5 L 65 187.5 L 76 170 Q 91 157.7 110.5 149 L 145.5 138 Z " /><path fill="rgb(0,0,0)" stroke="rgb(0,0,0)" stroke-width="1" opacity="1" d="M 98.5 247 L 161.5 299 L 172 306 Q 170.9 308.7 173.5 308 L 183 316.5 L 184 318.5 L 72.5 319 Q 61.8 321.3 57 329.5 L 53 340.5 L 53 484 L 40.5 487 L 35 492.5 Q 31.1 497 32 505 L 29.5 506 Q 15.6 500.4 7 489.5 L 0 478.5 L 0 420.5 L 35 304.5 L 42 290.5 L 55 273 L 74.5 258 Q 84.8 250.8 98.5 247 Z " /><path fill="rgb(0,0,0)" stroke="rgb(0,0,0)" stroke-width="1" opacity="1" d="M 339.5 247 Q 369.2 256.8 387 278.5 Q 397.6 290.9 404 307.5 L 440 427.5 L 440 473.5 Q 434.6 488.1 423.5 497 L 408.5 506 L 406 505 Q 406.4 493 398.5 488 L 392.5 485 L 387.5 485 L 384 482.5 L 384 336.5 Q 381.2 326.7 373.5 322 L 365.5 319 L 254 318.5 L 260.5 311 L 339.5 247 Z " /><path fill="rgb(0,0,0)" stroke="rgb(0,0,0)" stroke-width="1" opacity="1" d="M 75.5 333 L 362.5 333 L 370 339.5 L 370 482.5 L 368.5 484 L 68 484 L 68 339.5 L 70 336 L 75.5 333 Z M 217 354 L 178 376 L 170 383 L 170 401 L 173 414 L 185 438 L 203 455 L 219 464 L 225 462 L 238 453 Q 253 442 261 424 L 266 410 L 268 400 L 268 383 L 264 378 L 226 356 Q 223 353 217 354 Z " /><path fill="rgb(0,0,0)" stroke="rgb(0,0,0)" stroke-width="1" opacity="1" d="M 209.5 375 L 212 375.5 L 212 399.5 L 209.5 402 L 187.5 402 Q 182.3 400.3 184 391.5 L 186.5 388 L 209.5 375 Z " /><path fill="rgb(0,0,0)" stroke="rgb(0,0,0)" stroke-width="1" opacity="1" d="M 226 375 L 230.5 376 L 253 389 Q 254.6 391.1 254 396.5 L 250.5 402 L 228.5 402 L 226 399.5 L 226 375 Z " /><path fill="rgb(0,0,0)" stroke="rgb(0,0,0)" stroke-width="1" opacity="1" d="M 191 416 L 209.5 416 L 212 418.5 L 212 440.5 L 210.5 441 L 201 433.5 L 191 419.5 L 191 416 Z " /><path fill="rgb(0,0,0)" stroke="rgb(0,0,0)" stroke-width="1" opacity="1" d="M 228.5 416 L 246.5 416 L 247 418.5 L 236 435 L 226 441 L 226 418.5 L 228.5 416 Z " /><path fill="rgb(0,0,0)" stroke="rgb(0,0,0)" stroke-width="1" opacity="1" d="M 50.5 499 L 387.5 499 L 390 500 L 392 504.5 L 388.5 509 L 49.5 509 L 48 507.5 L 46 503.5 L 48.5 500 L 50.5 499 Z " /><path fill="rgb(0,0,0)" stroke="rgb(0,0,0)" stroke-width="1" opacity="0" d="M 0 0 L 440 0 L 440 422.5 L 439 422.5 L 434 409.5 L 432 399.5 L 428 389.5 L 424 372.5 L 421 366.5 L 418 352.5 L 403 304.5 L 391 283.5 L 374.5 266 Q 360 253.5 339.5 247 L 255 316.5 L 254 320 L 368.5 320 Q 377.1 322.4 381 329.5 L 383 334.5 L 383 480.5 L 386.5 485 L 394.5 486 L 403 492.5 L 405 498.5 L 405 503.5 L 406.5 505 L 409.5 506 Q 422.3 499.8 431 489.5 L 439.5 477 L 440 511 L 0.5 511 L 0 510.5 L 0 482.5 L 7 488.5 L 15.5 498 L 29.5 506 L 33 503.5 Q 32.4 490.9 40.5 487 L 49.5 486 L 54 482.5 L 55 480.5 L 55 333.5 Q 58 326 64.5 322 L 69.5 320 L 184 320 Q 183.4 314.6 178.5 312 L 172 308 Q 173.1 305.3 170.5 306 L 111.5 257 L 97.5 247 L 82.5 253 L 65.5 264 L 56.5 273 L 55 273 L 42 290.5 L 34 306.5 L 11 385.5 L 7 395.5 L 5 405.5 L 0.5 416 L 0 0 Z M 216 4 L 199 8 L 184 17 L 172 30 Q 173 32 170 31 L 167 38 L 100 137 L 101 138 L 122 130 L 150 123 L 169 121 L 170 120 L 178 120 L 179 119 L 187 119 L 188 118 L 209 118 L 210 117 L 249 118 L 250 119 L 277 121 L 310 128 L 334 137 L 337 137 L 334 131 L 264 27 Q 254 15 240 8 L 229 5 L 216 4 Z M 199 130 L 198 131 L 186 131 L 185 132 L 170 133 L 163 136 L 160 141 L 160 157 L 163 174 Q 167 187 175 196 Q 182 204 193 210 L 201 214 L 219 218 L 240 213 L 256 203 Q 268 193 274 177 L 277 164 L 277 139 L 273 134 L 254 132 L 253 131 L 241 131 L 240 130 L 199 130 Z M 146 138 L 113 148 Q 92 157 76 170 L 69 180 L 64 192 L 65 200 L 176 291 Q 178 290 177 293 L 213 320 L 226 320 L 244 306 Q 246 307 245 304 L 251 301 L 304 257 Q 306 258 305 255 L 321 243 Q 323 244 322 241 L 328 238 L 371 202 Q 370 199 373 200 L 374 196 Q 373 183 366 176 Q 356 164 342 156 Q 320 144 293 138 L 289 142 L 289 173 L 284 190 Q 278 203 268 212 Q 265 211 266 214 Q 254 225 235 229 L 204 229 L 186 223 L 175 216 Q 161 205 153 188 L 149 174 L 149 142 L 146 138 Z M 78 332 L 70 336 L 66 346 L 66 481 L 67 483 L 72 486 L 367 486 L 371 482 L 371 344 L 370 340 Q 366 334 360 332 L 78 332 Z M 53 498 L 49 500 L 46 504 L 48 508 L 51 510 L 388 510 L 392 505 L 390 500 L 386 498 L 53 498 Z " /><path fill="rgb(0,0,0)" stroke="rgb(0,0,0)" stroke-width="1" opacity="0" d="M 214.5 355 Q 222 353.5 225.5 356 L 263.5 378 L 267 381.5 L 267 402.5 L 261 423.5 Q 252.6 441.6 237.5 453 L 224.5 462 L 213.5 462 Q 196.3 452.7 185 437.5 Q 177 427 173 412.5 L 171 403.5 L 171 381.5 L 177.5 376 L 214.5 355 Z M 210 375 L 187 388 L 183 393 L 184 399 L 189 403 L 209 403 L 213 399 L 213 377 L 210 375 Z M 227 375 L 225 377 L 225 399 L 230 403 L 249 403 L 251 402 L 254 398 Q 255 391 253 389 L 231 376 L 227 375 Z M 193 415 L 191 417 L 191 420 L 201 434 L 211 441 L 213 441 L 213 420 L 209 415 L 193 415 Z M 230 415 L 225 420 L 225 441 L 230 440 L 236 435 L 243 426 L 247 417 L 246 415 L 230 415 Z " /></svg>