<?xml version="1.0" encoding="utf-8"?>
<!DOCTYPE svg PUBLIC "-//W3C//DTD SVG 1.0//EN" "http://www.w3.org/TR/2001/REC-SVG-20010904/DTD/svg10.dtd">
<svg version="1.0" xmlns="http://www.w3.org/2000/svg" width="124px" height="135px" viewBox="0 0 124 135" preserveAspectRatio="xMidYMid meet">
 <g fill="#000000">
  <path d="M34.2 118.7 c-2.1 -2.2 -2.2 -3.3 -2.2 -18.1 l0 -15.8 -3.4 -4.7 c-7.3 -10 -9.3 -17.5 -7.1 -26.7 1.9 -8.1 5 -13.7 11.2 -19.9 17.7 -18.1 43.4 -15.7 57.8 5.4 5.2 7.6 8.5 17.5 8.5 25.3 0 3.7 0.8 5.9 3.5 10.2 1.9 3 3.5 5.8 3.5 6.2 0 1.5 -3.7 3.3 -6.7 3.4 l-3.3 0 0 6.8 c0 12.1 -5 17.2 -16.7 17.2 l-6.3 0 0 4.3 c0 3.3 -0.6 4.9 -2.3 6.5 -2.2 2.1 -3.3 2.2 -18.3 2.2 -15.5 0 -16.1 -0.1 -18.2 -2.3z m30.6 -50.1 c7.4 -6.9 8.8 -7.6 16.1 -7.6 l6.1 0 0 -5.5 c0 -10 -5 -17.6 -14.5 -22.1 -7.4 -3.5 -20.1 -3.4 -27.3 0.2 -8.8 4.4 -14.1 12.7 -14.2 22.2 l0 5.2 9 0 c8.3 0 9 -0.2 9 -2 0 -2.5 7.1 -10 9.5 -10 2.3 0 8.5 3.8 8.5 5.3 0 0.6 -2.9 4.1 -6.5 7.8 -6.6 6.8 -7.5 8.5 -5.3 10.7 2.1 2.1 3.8 1.3 9.6 -4.2z"/>
  <path d="M38.5 54.9 c-1.1 -1.7 1.6 -7.1 3.2 -6.5 0.8 0.4 1.7 0.6 1.9 0.6 1.2 0 0.1 4.5 -1.3 5.6 -2.2 1.6 -3 1.7 -3.8 0.3z"/>
  <path d="M75 52.9 c-1.4 -2.5 -0.6 -4.9 1.4 -4.9 1.9 0 5 4.5 4.1 6 -1.1 1.7 -4.4 1.1 -5.5 -1.1z"/>
  <path d="M48.6 42.4 c-0.8 -2.2 -0.9 -2 2.5 -3.4 3.8 -1.6 5.7 -0.2 3.7 2.9 -1.5 2.5 -5.3 2.8 -6.2 0.5z"/>
  <path d="M63.5 42 c-1.4 -1.6 -1.6 -2.3 -0.7 -3.2 1.8 -1.8 6.7 0.2 6.7 2.7 0 2.8 -3.7 3.1 -6 0.5z"/>
 </g>
 <g fill="#ffffff">
  <path d="M32.4 101.5 c0 -8.8 0.2 -12.3 0.3 -7.7 0.2 4.6 0.2 11.8 0 16 -0.1 4.2 -0.3 0.5 -0.3 -8.3z"/>
  <path d="M72.3 112.5 c0 -2.7 0.2 -3.8 0.4 -2.2 0.2 1.5 0.2 3.7 0 5 -0.2 1.2 -0.4 0 -0.4 -2.8z"/>
  <path d="M95.4 90.5 l0.1 -7 3.8 -0.1 c3.7 -0.1 3.7 -0.1 0.3 0.3 l-3.5 0.4 -0.4 6.7 -0.3 6.7 0 -7z"/>
  <path d="M98.3 62.5 c0 -2.7 0.2 -3.8 0.4 -2.2 0.2 1.5 0.2 3.7 0 5 -0.2 1.2 -0.4 0 -0.4 -2.8z"/>
  <path d="M30.4 61.6 c-0.3 -0.8 -0.4 -2.7 -0.1 -4.3 0.4 -2.7 0.4 -2.7 0.6 0.5 l0.1 3.2 9.1 0 c5.7 0 8.8 0.4 8.4 1 -0.3 0.6 -4.4 1 -9.1 1 -6.4 0 -8.6 -0.3 -9 -1.4z"/>
  <path d="M73 62 c0.8 -0.5 4.3 -1 7.7 -1 l6.2 0 0.4 -4.7 c0.3 -4.7 0.3 -4.7 0.5 1 l0.2 5.7 -8.2 0 c-5.7 0 -7.8 -0.3 -6.8 -1z"/>
  <path d="M57.3 30.3 c1.5 -0.2 3.7 -0.2 5 0 1.2 0.2 0 0.4 -2.8 0.4 -2.7 0 -3.8 -0.2 -2.2 -0.4z"/>
 </g>
</svg>